<svg version="1.1" id="Layer_1" xmlns="http://www.w3.org/2000/svg" xmlns:xlink="http://www.w3.org/1999/xlink" x="0px" y="0px"
	 viewBox="0 0 24 24" style="enable-background:new 0 0 24 24;" xml:space="preserve">
<path d="M21,19.8l-5.9-5.9c0.9-1.2,1.5-2.8,1.5-4.4c0-4-3.2-7.2-7.2-7.2S2.2,5.5,2.2,9.5c0,4,3.2,7.2,7.2,7.2c1.7,0,3.3-0.6,4.6-1.6
	l5.9,5.9c0.2,0.2,0.4,0.2,0.6,0.2s0.4-0.1,0.6-0.2C21.4,20.6,21.4,20.1,21,19.8z M9.4,15.1c-3.1,0-5.6-2.5-5.6-5.6
	c0-3.1,2.5-5.6,5.6-5.6S15,6.4,15,9.5C15,12.6,12.5,15.1,9.4,15.1z"/>
</svg>
